<?xml version="1.0" encoding="UTF-8" standalone="no"?>
<svg
   xmlns:dc="http://purl.org/dc/elements/1.1/"
   xmlns:cc="http://creativecommons.org/ns#"
   xmlns:rdf="http://www.w3.org/1999/02/22-rdf-syntax-ns#"
   xmlns:svg="http://www.w3.org/2000/svg"
   xmlns="http://www.w3.org/2000/svg"
   xmlns:sodipodi="http://sodipodi.sourceforge.net/DTD/sodipodi-0.dtd"
   xmlns:inkscape="http://www.inkscape.org/namespaces/inkscape"
   width="94"
   height="94"
   version="1.1"
   id="svg34"
   sodipodi:docname="postgresql.svg"
   inkscape:version="0.92.5 (2060ec1f9f, 2020-04-08)">
  <metadata
     id="metadata40">
    <rdf:RDF>
      <cc:Work
         rdf:about="">
        <dc:format>image/svg+xml</dc:format>
        <dc:type
           rdf:resource="http://purl.org/dc/dcmitype/StillImage" />
        <dc:title></dc:title>
      </cc:Work>
    </rdf:RDF>
  </metadata>
  <defs
     id="defs38" />
  <sodipodi:namedview
     pagecolor="#ffffff"
     bordercolor="#666666"
     borderopacity="1"
     objecttolerance="10"
     gridtolerance="10"
     guidetolerance="10"
     inkscape:pageopacity="0"
     inkscape:pageshadow="2"
     inkscape:window-width="1920"
     inkscape:window-height="1017"
     id="namedview36"
     showgrid="false"
     inkscape:zoom="2.5106383"
     inkscape:cx="53.5"
     inkscape:cy="47"
     inkscape:window-x="1912"
     inkscape:window-y="-8"
     inkscape:window-maximized="1"
     inkscape:current-layer="svg34" />
  <style
     id="style2"><![CDATA[.B{stroke-width:1.682}.C{stroke:#fff}.D{stroke-linecap:round}.E{stroke-linejoin:round}]]></style>
  <path
     d="m 8.4360935,81.690136 h -4.367834 v -4.26 H 8.681773 c 1.687871,0 2.533682,0.72 2.533682,2.163 0,1.398 -0.923641,2.097 -2.7709222,2.097 m 3.1450672,-4.3 c -0.600132,-0.52 -1.438442,-0.78 -2.5168035,-0.78 l -6.267627,0.034 v 10.2 h 1.26309 l -0.011252,-4.338 h 4.6632112 c 1.1693195,0 2.0910853,-0.26 2.7615443,-0.78 0.670459,-0.52 1.008034,-1.24 1.008034,-2.163 0,-0.923 -0.300067,-1.643 -0.900197,-2.163 z m 8.173981,7.296 a 1.9598055,2.09 0 0 1 -0.599193,0.867 c -0.565437,0.534 -1.428127,0.8 -2.588069,0.8 -1.048355,0 -1.852907,-0.26 -2.413655,-0.78 -0.560749,-0.52 -0.84206,-1.214 -0.84206,-2.085 0,-0.453 0.07314,-0.856 0.220361,-1.207 a 2.2504943,2.4 0 0 1 0.63764,-0.89 c 0.581378,-0.512 1.378428,-0.768 2.397714,-0.768 2.254245,0 3.381368,0.955 3.381368,2.864 0,0.454 -0.06564,0.852 -0.19223,1.196 m 0.228801,-3.76 c -0.768919,-0.68 -1.90917,-1.02 -3.417939,-1.02 -1.425313,0 -2.528055,0.347 -3.304475,1.04 -0.701405,0.628 -1.052107,1.475 -1.052107,2.54 0,1.065 0.361955,1.913 1.087739,2.563 a 3.741447,3.99 0 0 0 1.39812,0.761 c 0.531679,0.157 1.156192,0.235 1.872599,0.235 1.500329,0 2.644331,-0.336 3.429191,-1.008 0.701403,-0.613 1.052106,-1.464 1.052106,-2.552 0,-1.095 -0.354454,-1.95 -1.064297,-2.563 z m 9.551473,4.057 c 0,1.372 -1.269654,2.057 -3.8099,2.057 -0.77642,0 -1.430002,-0.048 -1.961681,-0.143 -0.531679,-0.095 -0.963024,-0.254 -1.294034,-0.474 -0.255994,-0.168 -0.468853,-0.387 -0.609509,-0.657 a 2.5786915,2.75 0 0 1 -0.293502,-1.018 l 1.18151,-0.01 c 0,0.54 0.206296,0.937 0.620762,1.193 0.443535,0.307 1.23027,0.46 2.35833,0.46 1.775077,0 2.663085,-0.43 2.663085,-1.3 0,-0.503 -0.297253,-0.85 -0.892696,-1.04 -0.121902,-0.037 -0.83831,-0.133 -2.153911,-0.3 l -2.458665,-0.42 c -0.700466,-0.27 -1.050231,-0.755 -1.050231,-1.456 0,-0.686 0.313194,-1.197 0.939581,-1.532 0.309443,-0.14 0.695778,-0.246 1.159943,-0.323 0.464165,-0.077 1.00147,-0.115 1.612854,-0.115 2.4446,0 3.657054,0.742 3.657054,2.227 h -1.125247 c 0,-1.043 -0.85894,-1.565 -2.578692,-1.565 -0.873942,0 -1.526585,0.106 -1.956055,0.317 -0.429469,0.211 -0.644203,0.536 -0.644203,0.974 0,0.4 0.281311,0.704 0.87019,0.886 0.33945,0.095 1.119622,0.205 2.340514,0.328 1.093366,0.095 1.842593,0.23 2.250495,0.405 0.776421,0.292 1.16463,0.788 1.16463,1.488 z m 4.639769,1.858 -0.481043,0.065 -0.300066,0.022 c -0.768919,0 -1.324041,-0.108 -1.664428,-0.324 -0.340387,-0.216 -0.510112,-0.594 -0.510112,-1.135 v -4.65 h -1.40187 v -0.684 h 1.390617 l 0.01125,-2.197 h 1.078362 v 2.197 h 1.875412 v 0.695 l -1.875412,-0.01 v 4.524 c 0,0.337 0.0919,0.57 0.277561,0.698 0.185666,0.128 0.515738,0.192 0.98928,0.192 0.06751,0.007 0.143468,0.005 0.225049,-0.007 0.08158,-0.012 0.206295,-0.04 0.373207,-0.082 l 0.01125,0.698 z m 7.451949,-1.542 a 3.3007251,3.52 0 0 1 -1.006158,0.536 c -0.376958,0.124 -0.810178,0.186 -1.299661,0.186 -2.253307,0 -3.379492,-0.9 -3.379492,-2.7 0,-0.838 0.287875,-1.495 0.864565,-1.968 0.57669,-0.473 1.387805,-0.7 2.435223,-0.7 1.054919,0 1.856657,0.24 2.400527,0.716 0.543869,0.476 0.819555,1.117 0.819555,1.92 0,0.875 -0.278499,1.55 -0.836434,2.023 m 1.912921,-5.16 h -1.073674 l -0.01125,1.15 c -0.474479,-0.467 -0.813928,-0.762 -1.01741,-0.886 -0.602945,-0.32 -1.383117,-0.48 -2.340515,-0.48 -1.402807,0 -2.472731,0.3 -3.211643,0.93 -0.701404,0.57 -1.052106,1.393 -1.052106,2.472 0,0.532 0.08908,1.008 0.266308,1.427 a 2.6818391,2.86 0 0 0 0.775483,1.066 c 0.750166,0.598 1.785392,0.897 3.137565,0.897 1.622231,0 2.775609,-0.43 3.454509,-1.3 v 1.2 c 0,0.76 -0.247554,1.346 -0.750165,1.762 -0.502611,0.416 -1.306225,0.624 -2.438036,0.624 -1.063358,0 -1.821024,-0.142 -2.272999,-0.425 -0.33945,-0.218 -0.562623,-0.596 -0.701404,-1.133 H 35.20479 c 0.121901,0.75 0.450099,1.294 0.98459,1.63 0.618887,0.386 1.662554,0.58 3.133814,0.58 2.813119,0 4.219677,-1.012 4.219677,-3.036 v -6.5 z m 5.829718,0.675 a 6.2263678,6.64 0 0 0 -0.903949,-0.076 c -1.770389,0 -2.655583,0.94 -2.655583,2.82 v 3.268 h -1.065235 l -0.01125,-6.687 1.078362,0.01 v 1.193 h 0.05627 a 1.9973137,2.13 0 0 1 0.858939,-1.069 c 0.429469,-0.235 1.068985,-0.353 1.922297,-0.353 h 0.722034 v 0.895 z m 1.00147,2.234 c 0.135967,-0.76 0.440721,-1.348 0.915201,-1.765 0.309443,-0.24 0.659207,-0.422 1.05023,-0.543 0.391024,-0.121 0.832683,-0.18 1.312788,-0.18 0.956461,0 1.738507,0.254 2.344266,0.762 0.605757,0.508 0.909575,1.083 0.909575,1.727 h -6.545189 m 6.650212,-2.063 c -0.376958,-0.366 -0.843936,-0.637 -1.402809,-0.812 -0.558873,-0.175 -1.219017,-0.264 -1.956992,-0.264 -1.406559,0 -2.478357,0.314 -3.248214,0.942 -0.769856,0.628 -1.153378,1.482 -1.153378,2.563 0,1.081 0.369456,1.938 1.108369,2.573 0.798925,0.7 1.926985,1.05 3.382305,1.05 0.581377,0 1.117746,-0.064 1.612854,-0.2 0.495109,-0.136 0.925516,-0.307 1.294035,-0.54 0.648892,-0.45 1.059607,-1.007 1.233083,-1.668 h -1.16463 c -0.399463,1.143 -1.39437,1.715 -2.984719,1.715 -1.123372,0 -1.987937,-0.28 -2.588069,-0.84 -0.520427,-0.48 -0.780171,-1.1 -0.780171,-1.863 h 7.689189 c 0,-1.134 -0.3432,-2.024 -1.029601,-2.668 z"
     id="path4"
     inkscape:connector-curvature="0"
     style="fill:#231f20;stroke-width:0.9683522" />
  <path
     d="m 68.483034,84.272136 c 0,1.985 -1.654113,2.978 -4.964215,2.978 -1.983248,0 -3.430129,-0.342 -4.341579,-1.026 -0.746413,-0.562 -1.119621,-1.42 -1.119621,-2.572 h 1.331543 c 0,1.853 1.375614,2.78 4.128719,2.78 1.319353,0 2.273937,-0.2 2.862816,-0.57 0.496985,-0.335 0.746414,-0.86 0.746414,-1.575 0,-0.707 -0.339449,-1.203 -1.018349,-1.487 -0.375082,-0.153 -1.32404,-0.346 -2.816868,-0.58 -1.878225,-0.277 -3.09443,-0.554 -3.65424,-0.83 -0.806427,-0.408 -1.219018,-1.1 -1.219018,-2.078 0,-0.9 0.343201,-1.6 1.029601,-2.034 0.738912,-0.488 2.006691,-0.733 3.80146,-0.733 3.244463,0 4.864819,1.042 4.864819,3.127 h -1.343733 c 0,-1.562 -1.204015,-2.342 -3.612044,-2.342 -1.207765,0 -2.091084,0.157 -2.649956,0.47 -0.528867,0.336 -0.792362,0.828 -0.792362,1.478 0,0.68 0.339449,1.157 1.018349,1.434 0.361954,0.16 1.425313,0.383 3.190076,0.668 1.659739,0.24 2.77936,0.522 3.360738,0.843 0.792362,0.394 1.188074,1.077 1.188074,2.048 z m 10.821127,1.013 a 5.3918095,5.75 0 0 1 -1.686932,0.869 c -0.626388,0.193 -1.32873,0.3 -2.106088,0.3 -1.594101,0 -2.866568,-0.413 -3.844595,-1.24 -0.978027,-0.827 -1.456257,-1.94 -1.456257,-3.317 0,-1.435 0.484794,-2.553 1.453444,-3.355 0.96865,-0.802 2.255183,-1.202 3.855847,-1.202 1.622232,0 2.899387,0.42 3.827716,1.257 a 3.6851846,3.93 0 0 1 1.087739,1.432 c 0.243803,0.547 0.350702,1.17 0.350702,1.87 0,1.428 -0.49042,2.557 -1.472198,3.387 m 0.707968,0.676 c 0.693902,-0.474 1.207765,-1.048 1.539713,-1.722 0.331948,-0.674 0.49886,-1.453 0.49886,-2.335 0,-1.582 -0.543869,-2.85 -1.629733,-3.806 -0.581378,-0.525 -1.282783,-0.915 -2.104213,-1.17 -0.82143,-0.255 -1.762887,-0.383 -2.816869,-0.383 -2.0517,0 -3.661742,0.48 -4.831061,1.444 -1.169319,0.964 -1.75351,2.267 -1.75351,3.915 a 4.3978411,4.69 0 0 0 1.769451,3.882 c 1.178696,0.984 2.792489,1.476 4.83575,1.476 a 12.968474,13.83 0 0 0 2.091085,-0.157 c 0.594505,-0.105 1.100866,-0.265 1.51627,-0.482 l 1.969183,1.32 0.82143,-0.73 -1.905418,-1.25 z m 12.006388,1.04 h -9.102313 v -10.2 l 1.2509,-0.022 v 9.37 h 7.862665 z"
     id="path6"
     inkscape:connector-curvature="0"
     style="fill:#367faf;stroke-width:0.9683522" />
  <path
     d="m 64.381138,53.684191 c 0.445932,-3.625047 0.312852,-4.156569 3.081832,-3.569277 l 0.702751,0.06033 c 2.129266,0.09447 4.902916,-0.333482 6.551229,-1.075564 3.523095,-1.593427 5.611503,-4.254452 2.138605,-3.555619 C 68.932677,47.137488 68.38752,44.52199 68.38752,44.52199 76.753994,32.418762 80.251407,17.053568 77.232612,13.290803 68.99805,3.0325435 54.745742,7.8845304 54.506433,8.0097284 l -0.07588,0.013658 c -1.566599,-0.3164092 -3.31764,-0.5053441 -5.28581,-0.5372128 -3.583798,-0.056908 -6.306083,0.916221 -8.369977,2.4424969 0,0 -25.425117,-10.21387069 -24.243748,12.8453025 0.25215,4.894099 7.211955,37.117758 15.51189,27.387606 3.035138,-3.557897 5.965213,-6.567199 5.965213,-6.567199 1.455699,0.944676 3.198569,1.422704 5.026656,1.25198 l 0.140083,-0.117231 c -0.04436,0.441607 -0.02335,0.874108 0.05603,1.385143 -2.138605,2.329819 -1.509397,2.738419 -5.78544,3.596594 -4.325071,0.869557 -1.783727,2.416319 -0.124907,2.820367 2.011362,0.48941 6.66563,1.183689 9.808165,-3.107184 l -0.124908,0.48941 c 0.8405,0.654444 0.782132,4.702888 0.901203,7.594959 0.119071,2.89207 0.317522,5.591793 0.933888,7.184082 0.616367,1.592289 1.319118,5.690812 6.937625,4.516229 4.696293,-0.981097 8.285927,-2.393556 8.615123,-15.529091"
     id="path8"
     inkscape:connector-curvature="0"
     style="fill:#231f20;stroke:#231f20;stroke-width:5.81636858" />
  <path
     d="M 76.856722,45.544053 C 68.932677,47.137481 68.38752,44.521983 68.38752,44.521983 76.753994,32.417625 80.251407,17.05243 77.23378,13.290803 68.999217,3.0336817 54.745742,7.8845304 54.5076,8.0097284 l -0.07705,0.013658 C 52.863956,7.706977 51.112915,7.5180422 49.14241,7.4861735 c -3.583797,-0.056908 -6.303748,0.9162209 -8.369976,2.4424969 0,0 -25.427453,-10.21273253 -24.246084,12.8453026 0.250983,4.894099 7.210788,37.117758 15.51189,27.388744 3.035138,-3.557896 5.95354,-6.567198 5.95354,-6.567198 1.455699,0.944675 3.198569,1.422703 5.026656,1.251979 l 0.142418,-0.117231 c -0.04436,0.441606 -0.02335,0.874109 0.05837,1.385143 -2.138605,2.32982 -1.510565,2.73842 -5.78544,3.596595 -4.326239,0.869555 -1.786062,2.416318 -0.126075,2.820366 2.011362,0.48941 6.66563,1.18369 9.808165,-3.107183 l -0.124908,0.489409 c 0.838165,0.654443 1.426515,4.256728 1.32729,7.520978 -0.09923,3.26425 -0.163431,5.50643 0.496128,7.258063 0.659559,1.751632 1.319118,5.690812 6.938792,4.516229 4.696293,-0.981096 7.129072,-3.523751 7.467607,-7.764546 0.240476,-3.01613 0.782132,-2.56997 0.817153,-5.265139 l 0.436593,-1.274742 c 0.501965,-4.086004 0.07938,-5.406272 2.973267,-4.791664 l 0.702752,0.06033 c 2.129266,0.09447 4.914588,-0.333482 6.552396,-1.075564 3.521927,-1.593428 5.611503,-4.254452 2.138605,-3.55562 z"
     id="path10"
     inkscape:connector-curvature="0"
     style="fill:#417ba2;stroke-width:1.15266919" />
  <g
     class="C B"
     id="g24"
     style="fill:none;stroke:#ffffff;stroke-width:1.68200004"
     transform="matrix(1.1673608,0,0,1.1381626,-14.469413,-2.8312699)">
    <g
       class="D"
       id="g16"
       style="stroke-linecap:round">
      <path
         d="m 53.06,44.562 c -0.187,6.682 0.047,13.4 0.7,15.046 0.653,1.646 2.054,4.816 6.87,3.785 4.022,-0.862 5.486,-2.53 6.12,-6.214 0.468,-2.7 1.37,-10.236 1.485,-11.778 M 47.3,11.063 c 0,0 -21.797,-8.9 -20.783,11.35 0.216,4.3 6.178,32.613 13.3,24.064 2.6,-3.126 4.95,-5.578 4.95,-5.578 M 59.064,9.437 c -0.755,0.237 12.125,-4.708 19.444,4.644 2.585,3.304 -0.4,16.804 -7.578,27.44"
         class="E"
         id="path12"
         inkscape:connector-curvature="0"
         style="stroke-linejoin:round" />
      <path
         d="m 70.93,41.52 c 0,0 0.467,2.3 7.255,0.898 2.974,-0.614 1.184,1.724 -1.832,3.125 -2.476,1.15 -8.026,1.443 -8.117,-0.144 -0.234,-4.096 2.92,-2.852 2.694,-3.878 C 70.724,40.597 69.313,39.689 68.38,37.427 67.565,35.452 57.207,20.307 71.253,22.557 71.768,22.451 67.59,9.197 54.445,8.982 41.3,8.767 41.745,25.144 41.745,25.144"
         id="path14"
         inkscape:connector-curvature="0"
         style="stroke-linejoin:bevel" />
    </g>
    <g
       class="E"
       id="g22"
       style="stroke-linejoin:round">
      <path
         d="m 49.383,42.922 c -1.832,2.047 -1.293,2.406 -4.956,3.16 -3.705,0.764 -1.528,2.123 -0.108,2.478 1.723,0.43 5.71,1.042 8.402,-2.73 0.82,-1.148 -0.005,-2.98 -1.13,-3.448 -0.544,-0.225 -1.272,-0.508 -2.208,0.54 z"
         id="path18"
         inkscape:connector-curvature="0" />
      <path
         d="m 49.262,42.886 c -0.184,-1.203 0.396,-2.635 1.017,-4.31 0.934,-2.513 3.09,-5.028 1.365,-13 -1.285,-5.942 -9.904,-1.237 -9.91,-0.43 -0.006,0.807 0.4,4.084 -0.144,7.9 -0.697,4.98 3.17,9.194 7.622,8.763"
         class="D"
         id="path20"
         inkscape:connector-curvature="0"
         style="stroke-linecap:round" />
    </g>
  </g>
  <g
     class="C"
     id="g30"
     style="fill:#ffffff;stroke:#ffffff"
     transform="matrix(1.1673608,0,0,1.1381626,-14.469413,-2.8312699)">
    <path
       d="m 47.212,25.023 c -0.04,0.275 0.504,1.01 1.21,1.108 0.706,0.098 1.31,-0.475 1.35,-0.75 0.04,-0.275 -0.504,-0.578 -1.21,-0.677 -0.706,-0.099 -1.312,0.045 -1.35,0.32 z"
       id="path26"
       inkscape:connector-curvature="0"
       style="stroke-width:0.56099999" />
    <path
       d="m 68.725,24.462 c 0.038,0.275 -0.504,1 -1.21,1.108 -0.706,0.108 -1.31,-0.475 -1.35,-0.75 -0.04,-0.275 0.505,-0.578 1.212,-0.677 0.707,-0.099 1.31,0.045 1.35,0.32 z"
       id="path28"
       inkscape:connector-curvature="0"
       style="stroke-width:0.28" />
  </g>
  <path
     d="m 68.708544,22.842263 c 0.135414,2.456155 -0.542823,4.13153 -0.62804,6.745889 -0.12841,3.801464 1.858438,8.15152 -1.13234,12.508407"
     class="B C D E"
     id="path32"
     inkscape:connector-curvature="0"
     style="fill:none;stroke:#ffffff;stroke-width:1.93878961;stroke-linecap:round;stroke-linejoin:round" />
</svg>
